<svg width="110" height="34" viewBox="0 0 110 34" fill="none" xmlns="http://www.w3.org/2000/svg">
<path fill-rule="evenodd" clip-rule="evenodd" d="M32.5269 18.3848H1.41421L16.9706 33.9411L32.5269 18.3848ZM0.585786 16.3848L16.9706 -1.19209e-05L33.3553 16.3848L0.585786 16.3848Z" fill="#1D1A1A"/>
<path d="M55.2582 11.4784H50.0051V25.9706H47.5629V11.4784H42.2867V9.42783H55.2582V11.4784ZM56.8215 16.5126C57.1978 15.7446 57.651 15.1417 58.1809 14.704C58.7108 14.2662 59.3482 14.0473 60.0932 14.0473C60.3466 14.0473 60.5847 14.0781 60.8074 14.1395C61.0378 14.1933 61.2375 14.2777 61.4065 14.393L61.2567 16.0864C61.203 16.2937 61.0762 16.3974 60.8766 16.3974C60.769 16.3974 60.6078 16.3782 60.3927 16.3398C60.1777 16.2937 59.9473 16.2707 59.7015 16.2707C59.3406 16.2707 59.0218 16.3245 58.7454 16.432C58.4689 16.5318 58.2193 16.6854 57.9966 16.8928C57.7815 17.0925 57.5895 17.3421 57.4206 17.6416C57.2516 17.9334 57.0942 18.2675 56.9482 18.6438V25.9706H54.7018V14.2662H55.9921C56.2378 14.2662 56.403 14.3123 56.4874 14.4045C56.5796 14.4889 56.6449 14.6425 56.6833 14.8653L56.8215 16.5126ZM70.4648 18.8166C70.4648 18.3712 70.3995 17.9603 70.269 17.584C70.1461 17.2077 69.9618 16.8813 69.716 16.6048C69.4702 16.3283 69.1707 16.1133 68.8174 15.9597C68.4642 15.8061 68.0571 15.7293 67.5963 15.7293C66.6517 15.7293 65.9067 16.0019 65.3614 16.5472C64.8238 17.0925 64.4821 17.8489 64.3362 18.8166H70.4648ZM72.3195 24.3002C72.043 24.6227 71.7243 24.903 71.3634 25.1411C71.0024 25.3715 70.6184 25.5597 70.2114 25.7056C69.8043 25.8515 69.3819 25.959 68.9442 26.0282C68.5141 26.0973 68.0878 26.1318 67.6654 26.1318C66.859 26.1318 66.1102 25.9974 65.419 25.7286C64.7355 25.4522 64.1403 25.0528 63.6334 24.5306C63.1342 24.0006 62.7426 23.3478 62.4584 22.5722C62.1819 21.7888 62.0437 20.8902 62.0437 19.8765C62.0437 19.0624 62.1704 18.3059 62.4238 17.607C62.6773 16.9005 63.0382 16.2861 63.5067 15.7638C63.9829 15.2416 64.5627 14.8307 65.2462 14.5312C65.9298 14.2317 66.6978 14.0819 67.5502 14.0819C68.2645 14.0819 68.9211 14.2009 69.5202 14.439C70.1269 14.6694 70.6491 15.0073 71.0869 15.4528C71.5246 15.8982 71.8664 16.4473 72.1122 17.1001C72.3656 17.7529 72.4923 18.4979 72.4923 19.335C72.4923 19.6806 72.4539 19.9149 72.3771 20.0377C72.3003 20.153 72.1582 20.2106 71.9509 20.2106H64.2786C64.3016 20.9094 64.4014 21.52 64.5781 22.0422C64.7547 22.5568 64.9966 22.9869 65.3038 23.3325C65.6187 23.6781 65.9912 23.9354 66.4213 24.1043C66.8514 24.2733 67.3314 24.3578 67.8613 24.3578C68.3605 24.3578 68.7906 24.3002 69.1515 24.185C69.5202 24.0698 69.835 23.9469 70.0962 23.8163C70.365 23.6781 70.5877 23.5514 70.7643 23.4362C70.9486 23.321 71.1099 23.2634 71.2482 23.2634C71.4325 23.2634 71.5746 23.3325 71.6744 23.4707L72.3195 24.3002ZM77.015 15.8905C77.2684 15.6217 77.5334 15.376 77.8099 15.1533C78.0864 14.9305 78.3782 14.7424 78.6854 14.5888C79.0003 14.4275 79.3344 14.3046 79.6876 14.2201C80.0486 14.128 80.4326 14.0819 80.8396 14.0819C81.4848 14.0819 82.0492 14.1894 82.5331 14.4045C83.0246 14.6195 83.4355 14.9229 83.7657 15.3145C84.096 15.6985 84.3456 16.1632 84.5145 16.7085C84.6835 17.2537 84.768 17.8566 84.768 18.5171V25.9706H82.51V18.5171C82.51 17.68 82.318 17.031 81.934 16.5702C81.55 16.1017 80.9625 15.8675 80.1715 15.8675C79.5955 15.8675 79.054 16.0057 78.5472 16.2822C78.048 16.551 77.5833 16.9197 77.1532 17.3881V25.9706H74.9068V14.2662H76.2547C76.5696 14.2662 76.7654 14.416 76.8422 14.7155L77.015 15.8905ZM95.3449 17.1001C94.9763 16.6163 94.5769 16.2784 94.1469 16.0864C93.7245 15.8944 93.2483 15.7984 92.7184 15.7984C91.6893 15.7984 90.8905 16.1709 90.3222 16.9158C89.7616 17.6531 89.4813 18.7321 89.4813 20.153C89.4813 20.8979 89.5427 21.5354 89.6656 22.0653C89.7961 22.5875 89.9805 23.0176 90.2185 23.3555C90.4643 23.6858 90.7638 23.9315 91.1171 24.0928C91.4704 24.2464 91.8697 24.3232 92.3152 24.3232C92.968 24.3232 93.5325 24.1773 94.0086 23.8854C94.4848 23.5936 94.9302 23.1827 95.3449 22.6528V17.1001ZM97.6029 8.96703V25.9706H96.2435C95.9286 25.9706 95.7328 25.8208 95.656 25.5213L95.4601 24.1734C94.9609 24.7648 94.3926 25.241 93.7552 25.6019C93.1254 25.9552 92.3958 26.1318 91.5664 26.1318C90.8982 26.1318 90.2915 26.0013 89.7462 25.7402C89.2086 25.479 88.7478 25.0989 88.3638 24.5997C87.9798 24.0928 87.6841 23.4669 87.4768 22.7219C87.2694 21.977 87.1657 21.1206 87.1657 20.153C87.1657 19.2851 87.2809 18.4787 87.5113 17.7337C87.7417 16.9888 88.0758 16.3437 88.5136 15.7984C88.9513 15.2531 89.4813 14.8269 90.1033 14.5197C90.7254 14.2048 91.4281 14.0473 92.2115 14.0473C92.9181 14.0473 93.5171 14.1625 94.0086 14.393C94.5078 14.6233 94.9533 14.9497 95.3449 15.3721V8.96703H97.6029ZM107.637 16.2822C107.576 16.3821 107.511 16.455 107.441 16.5011C107.372 16.5395 107.284 16.5587 107.177 16.5587C107.054 16.5587 106.915 16.5165 106.762 16.432C106.616 16.3475 106.435 16.2553 106.22 16.1555C106.013 16.0557 105.767 15.9635 105.483 15.879C105.199 15.7945 104.861 15.7523 104.469 15.7523C104.147 15.7523 103.851 15.7945 103.582 15.879C103.321 15.9558 103.098 16.0672 102.914 16.2131C102.73 16.3513 102.588 16.5203 102.488 16.72C102.388 16.912 102.338 17.1193 102.338 17.3421C102.338 17.6339 102.423 17.8758 102.592 18.0678C102.768 18.2598 102.995 18.425 103.271 18.5632C103.555 18.7014 103.874 18.8282 104.227 18.9434C104.588 19.0509 104.953 19.1661 105.322 19.2889C105.698 19.4118 106.063 19.5539 106.416 19.7152C106.777 19.8688 107.096 20.0646 107.372 20.3027C107.657 20.5331 107.883 20.8134 108.052 21.1437C108.229 21.4739 108.317 21.8771 108.317 22.3533C108.317 22.8986 108.217 23.4054 108.017 23.8739C107.825 24.3347 107.537 24.7341 107.153 25.072C106.777 25.4099 106.309 25.6749 105.748 25.8669C105.187 26.0589 104.546 26.1549 103.824 26.1549C103.018 26.1549 102.273 26.0205 101.589 25.7517C100.906 25.4829 100.334 25.1411 99.8728 24.7264L100.403 23.8624C100.464 23.7549 100.541 23.6742 100.633 23.6205C100.725 23.559 100.848 23.5283 101.002 23.5283C101.148 23.5283 101.297 23.5821 101.451 23.6896C101.605 23.7971 101.789 23.9162 102.004 24.0467C102.219 24.1696 102.48 24.2848 102.787 24.3923C103.095 24.4922 103.479 24.5421 103.939 24.5421C104.323 24.5421 104.657 24.496 104.942 24.4038C105.226 24.304 105.46 24.1734 105.644 24.0122C105.836 23.8432 105.978 23.6512 106.071 23.4362C106.163 23.2211 106.209 22.9946 106.209 22.7565C106.209 22.4493 106.121 22.1958 105.944 21.9962C105.775 21.7888 105.548 21.6122 105.264 21.4662C104.988 21.3203 104.669 21.1936 104.308 21.0861C103.947 20.9786 103.578 20.8634 103.202 20.7405C102.826 20.6176 102.457 20.4755 102.096 20.3142C101.735 20.153 101.413 19.9494 101.129 19.7037C100.852 19.4579 100.625 19.1584 100.449 18.8051C100.28 18.4518 100.195 18.0217 100.195 17.5149C100.195 17.0617 100.288 16.6278 100.472 16.2131C100.664 15.7984 100.937 15.4336 101.29 15.1187C101.651 14.8038 102.092 14.5542 102.615 14.3699C103.145 14.1779 103.747 14.0819 104.423 14.0819C105.199 14.0819 105.898 14.2048 106.52 14.4506C107.15 14.6963 107.687 15.0342 108.133 15.4643L107.637 16.2822Z" fill="#1D1A1A"/>
</svg>
